<mxfile host="Electron" modified="2024-05-10T17:09:52.966Z" agent="Mozilla/5.0 (X11; Linux x86_64) AppleWebKit/537.36 (KHTML, like Gecko) draw.io/24.2.5 Chrome/120.0.6099.109 Electron/28.1.0 Safari/537.36" etag="_yMHeDHmMTwoLbkcNT7t" version="24.2.5" type="device">
  <diagram name="Page-1" id="LcyezpBl9HWqHlvSWW5f">
    <mxGraphModel dx="880" dy="558" grid="1" gridSize="10" guides="1" tooltips="1" connect="1" arrows="1" fold="1" page="1" pageScale="1" pageWidth="850" pageHeight="1100" math="0" shadow="0">
      <root>
        <mxCell id="0" />
        <mxCell id="1" parent="0" />
        <mxCell id="0nkbWv3EC1F2KqYbybj2-1" style="edgeStyle=orthogonalEdgeStyle;rounded=0;orthogonalLoop=1;jettySize=auto;html=1;exitX=0.5;exitY=1;exitDx=0;exitDy=0;exitPerimeter=0;entryX=0.5;entryY=0;entryDx=0;entryDy=0;fontFamily=Times New Roman;" edge="1" parent="1" source="0nkbWv3EC1F2KqYbybj2-2" target="0nkbWv3EC1F2KqYbybj2-4">
          <mxGeometry relative="1" as="geometry" />
        </mxCell>
        <mxCell id="0nkbWv3EC1F2KqYbybj2-2" value="&lt;font&gt;Начало&lt;/font&gt;" style="strokeWidth=2;html=1;shape=mxgraph.flowchart.terminator;whiteSpace=wrap;fontFamily=Times New Roman;" vertex="1" parent="1">
          <mxGeometry x="369.5" y="150" width="100" height="60" as="geometry" />
        </mxCell>
        <mxCell id="0nkbWv3EC1F2KqYbybj2-55" style="edgeStyle=orthogonalEdgeStyle;rounded=0;orthogonalLoop=1;jettySize=auto;html=1;exitX=0.5;exitY=1;exitDx=0;exitDy=0;entryX=0.5;entryY=0;entryDx=0;entryDy=0;" edge="1" parent="1" source="0nkbWv3EC1F2KqYbybj2-4" target="0nkbWv3EC1F2KqYbybj2-54">
          <mxGeometry relative="1" as="geometry" />
        </mxCell>
        <mxCell id="0nkbWv3EC1F2KqYbybj2-4" value="&lt;font&gt;инициализировать модель MPRNet&lt;/font&gt;" style="shape=process;whiteSpace=wrap;html=1;backgroundOutline=1;fontFamily=Times New Roman;" vertex="1" parent="1">
          <mxGeometry x="314.5" y="230" width="210" height="30" as="geometry" />
        </mxCell>
        <mxCell id="0nkbWv3EC1F2KqYbybj2-57" style="edgeStyle=orthogonalEdgeStyle;rounded=0;orthogonalLoop=1;jettySize=auto;html=1;exitX=0.5;exitY=1;exitDx=0;exitDy=0;entryX=0.5;entryY=0;entryDx=0;entryDy=0;" edge="1" parent="1" source="0nkbWv3EC1F2KqYbybj2-54" target="0nkbWv3EC1F2KqYbybj2-56">
          <mxGeometry relative="1" as="geometry" />
        </mxCell>
        <mxCell id="0nkbWv3EC1F2KqYbybj2-54" value="&lt;font&gt;Загрузка параметров сети&lt;/font&gt;" style="shape=process;whiteSpace=wrap;html=1;backgroundOutline=1;fontFamily=Times New Roman;" vertex="1" parent="1">
          <mxGeometry x="316" y="280" width="210" height="30" as="geometry" />
        </mxCell>
        <mxCell id="0nkbWv3EC1F2KqYbybj2-63" style="edgeStyle=orthogonalEdgeStyle;rounded=0;orthogonalLoop=1;jettySize=auto;html=1;exitX=0.5;exitY=1;exitDx=0;exitDy=0;entryX=0.5;entryY=0;entryDx=0;entryDy=0;" edge="1" parent="1" source="0nkbWv3EC1F2KqYbybj2-56" target="0nkbWv3EC1F2KqYbybj2-62">
          <mxGeometry relative="1" as="geometry" />
        </mxCell>
        <mxCell id="0nkbWv3EC1F2KqYbybj2-56" value="&lt;font&gt;Установка модель в режим оценки&lt;/font&gt;" style="shape=process;whiteSpace=wrap;html=1;backgroundOutline=1;fontFamily=Times New Roman;" vertex="1" parent="1">
          <mxGeometry x="316" y="330" width="210" height="30" as="geometry" />
        </mxCell>
        <mxCell id="0nkbWv3EC1F2KqYbybj2-62" value="&lt;font face=&quot;Times New Roman&quot;&gt;Загрузка изображение&lt;/font&gt;" style="rounded=0;whiteSpace=wrap;html=1;" vertex="1" parent="1">
          <mxGeometry x="313.5" y="380" width="215" height="30" as="geometry" />
        </mxCell>
      </root>
    </mxGraphModel>
  </diagram>
</mxfile>
